<svg height="49.2" viewBox="0 0 188.9 49.2" width="188.9" xmlns="http://www.w3.org/2000/svg"><g fill="#fff"><path d="m7 34.1-3.3 9.7h-3.7l14.4-40.6h3.1l14.4 40.6h-3.6l-3.3-9.7zm17-2.7-7.9-23-.2-1.3-.2 1.3-7.8 23z"/><path d="m39.2 43.8v-42.2a1.6 1.6 0 0 1 1.6-1.6 1.7 1.7 0 0 1 1.7 1.6v42.2z"/><path d="m52.2 43.8v-42.2a1.6 1.6 0 0 1 1.6-1.6 1.6 1.6 0 0 1 1.7 1.6v42.2z"/><path d="m78.9 3.2c8.4 0 13.3 4.1 13.3 11.1a8.7 8.7 0 0 1 -6.5 8.7 9.6 9.6 0 0 1 8.2 9.9c0 6.9-5.2 10.9-13.9 10.9h-16.2v-40.6zm-.8 16.9c2.6 0 4.3-1.7 4.3-4.5a3.8 3.8 0 0 0 -4-4.1h-4.7v8.6zm1.3 15.5c2.7 0 4.5-1.5 4.5-4.2s-2.1-4.6-4.9-4.6h-5.3v8.8z"/><path d="m126.6 25.6v18.2h-8.2l-1.2-3.7a9.6 9.6 0 0 1 -8.5 4.5c-6.2 0-11.3-3.6-11.3-10.8s5.1-10.7 11.3-10.7 8.1 2.7 8.1 2.7v-2.5c0-3.7-2.6-5.5-7-5.5a17.9 17.9 0 0 0 -8.8 2.1v-8c2.3-1.2 6.5-1.9 11-1.9 8.9 0 14.6 6.1 14.6 15.6zm-19.1 8.1a3.9 3.9 0 0 0 4.2 4c3.3 0 5.2-1.8 5.2-4.8v-1a6.1 6.1 0 0 0 -5.2-2.3 3.9 3.9 0 0 0 -4.2 4.1z"/><path d="m133.3 43.8v-38.9a4.9 4.9 0 0 1 4.9-4.9 4.9 4.9 0 0 1 5 4.9v38.9z"/><path d="m150.2 43.8v-38.9a4.9 4.9 0 0 1 4.9-4.9 4.9 4.9 0 0 1 4.9 4.9v38.9z"/><path d="m187.6 12.5v7.5a14.9 14.9 0 0 0 -8.2-2.8c-2.5 0-3.8 1-3.8 2.6 0 4.2 13.3 5.4 13.3 15 0 6.2-4.8 9.8-12.3 9.8-6 0-9.1-1.8-9.9-2.5v-7.5a13.7 13.7 0 0 0 8.2 2.8c2.4 0 3.8-.9 3.8-2.6 0-4.7-13.3-5.6-13.3-15 0-6.1 4.8-9.8 12.3-9.8 5.9 0 8.9 1.8 9.9 2.5z"/></g><circle cx="108.5" cy="35.8" fill="#f47927" r="13.4"/></svg>